<svg viewBox="0 0 173.41 23.05" xmlns="http://www.w3.org/2000/svg" data-sanitized-data-name="Capa 1" data-name="Capa 1" id="Capa_1"><defs><style>.cls-1{fill:#ffce05;}</style></defs><path d="M11.88,9.73A26,26,0,0,0,9.34,8l-.87-.56C7.44,6.84,6.69,6.35,6.2,6a4.19,4.19,0,0,1-1.15-1.2,2.82,2.82,0,0,1-.41-1.53,2.33,2.33,0,0,1,.83-1.88A3.31,3.31,0,0,1,7.65.69,3.9,3.9,0,0,1,10,1.46a5.05,5.05,0,0,1,1.58,2,7.51,7.51,0,0,1,.67,2.59h.63c0-2.7,0-4.61.14-5.74h-.63a3.07,3.07,0,0,1-.22.85.43.43,0,0,1-.38.26,1,1,0,0,1-.4-.1l-.53-.25A9.22,9.22,0,0,0,9.18.34,8.23,8.23,0,0,0,6.91.09a8.85,8.85,0,0,0-3.06.5A4.89,4.89,0,0,0,1.62,2.14,3.93,3.93,0,0,0,.79,4.69,4.31,4.31,0,0,0,1.41,7,6.44,6.44,0,0,0,3,8.72a30.29,30.29,0,0,0,2.62,1.71A15.78,15.78,0,0,1,8.77,12.7a3.35,3.35,0,0,1,1,2.41,2.46,2.46,0,0,1-1,2.09,3.86,3.86,0,0,1-2.43.73,4.05,4.05,0,0,1-3.61-1.75,9.11,9.11,0,0,1-1.36-4.56H.76c0,3.47,0,5.74-.11,6.79h.63a2.5,2.5,0,0,1,.22-.84.41.41,0,0,1,.38-.27,2,2,0,0,1,.93.36,9.07,9.07,0,0,0,1.86.68,11.15,11.15,0,0,0,2.54.25A10.07,10.07,0,0,0,10.64,18a5.36,5.36,0,0,0,2.44-1.64A4.09,4.09,0,0,0,14,13.68a4.24,4.24,0,0,0-.59-2.25,6.14,6.14,0,0,0-1.52-1.7"></path><path d="M21.53,4.87a7,7,0,0,0-4.91,1.65q-1.79,1.65-1.79,5.22T16.62,17a7,7,0,0,0,4.91,1.64A7,7,0,0,0,26.45,17q1.77-1.63,1.77-5.21T26.45,6.52a7,7,0,0,0-4.92-1.65m1.88,11.67c-.45,1-1.08,1.55-1.88,1.55s-1.41-.52-1.87-1.57a12.24,12.24,0,0,1-.7-4.78A12.29,12.29,0,0,1,19.66,7c.46-1,1.09-1.58,1.87-1.58s1.41.52,1.87,1.56a12.37,12.37,0,0,1,.7,4.81,12.51,12.51,0,0,1-.69,4.8"></path><path d="M50.61,15.89V9.12a9.29,9.29,0,0,0-.19-2,2.66,2.66,0,0,0-.63-1.23,4,4,0,0,0-3-1,6,6,0,0,0-2.68.57,4.23,4.23,0,0,0-1.86,1.92,2.63,2.63,0,0,0-.68-1.51,4,4,0,0,0-3-1,4.34,4.34,0,0,0-4.23,2.34V4.94a18.23,18.23,0,0,1-4,.36c-.55,0-1.11,0-1.7-.08v.53A1.59,1.59,0,0,1,30,6.28,2.87,2.87,0,0,1,30.38,8v7.92A2,2,0,0,1,30,17.32a1.9,1.9,0,0,1-1.37.39v.53c2-.07,3.23-.1,3.78-.1s1.62,0,3.22.1v-.53a1.18,1.18,0,0,1-1-.39,2.48,2.48,0,0,1-.29-1.43v-7a2.94,2.94,0,0,1,.78-2.08A2.46,2.46,0,0,1,37,6a1.24,1.24,0,0,1,1.17.51,3.25,3.25,0,0,1,.3,1.58v7.82a2.58,2.58,0,0,1-.28,1.43,1.21,1.21,0,0,1-1,.39v.53c1.75-.07,2.88-.1,3.39-.1s1.7,0,3.45.1v-.53a1.61,1.61,0,0,1-1.25-.39,2.22,2.22,0,0,1-.34-1.43V8.67a3.22,3.22,0,0,1,.89-1.91A2.37,2.37,0,0,1,45,6a1.46,1.46,0,0,1,1.3.51,2.9,2.9,0,0,1,.34,1.58v7.82a2.46,2.46,0,0,1-.29,1.44,1.21,1.21,0,0,1-1,.38v.53c1.75-.07,2.88-.1,3.39-.1s1.78,0,3.61.1v-.53A1.92,1.92,0,0,1,51,17.32a2,2,0,0,1-.39-1.43"></path><path d="M59.13,4.87a7,7,0,0,0-4.9,1.65c-1.2,1.1-1.79,2.84-1.79,5.22S53,15.86,54.23,17a7,7,0,0,0,4.9,1.64A7,7,0,0,0,64.05,17q1.78-1.63,1.78-5.21T64.05,6.52a6.94,6.94,0,0,0-4.92-1.65M61,16.54c-.46,1-1.09,1.55-1.89,1.55s-1.4-.52-1.87-1.57a12.43,12.43,0,0,1-.7-4.78A12.48,12.48,0,0,1,57.26,7c.47-1,1.09-1.58,1.87-1.58s1.41.52,1.88,1.56a12.6,12.6,0,0,1,.69,4.81,12.74,12.74,0,0,1-.68,4.8"></path><path d="M74,10.53l-.8-.53a12.77,12.77,0,0,1-2-1.49A2,2,0,0,1,70.56,7a1.42,1.42,0,0,1,.53-1.18,2.12,2.12,0,0,1,1.35-.43,2.84,2.84,0,0,1,2.42,1.12,6,6,0,0,1,1.08,2.78h.57c0-2.09,0-3.57.11-4.43h-.57a1.48,1.48,0,0,1-.23.7.52.52,0,0,1-.43.24.93.93,0,0,1-.49-.18,4.86,4.86,0,0,0-1.34-.54,7.19,7.19,0,0,0-1.91-.24,5.77,5.77,0,0,0-3.33.93A2.9,2.9,0,0,0,67,8.34,3.24,3.24,0,0,0,67.4,10a5.32,5.32,0,0,0,1.09,1.31c.43.37,1.06.85,1.88,1.46s1.21.9,1.55,1.18a3.79,3.79,0,0,1,.86,1,2.34,2.34,0,0,1,.35,1.26,1.61,1.61,0,0,1-.56,1.35,2.17,2.17,0,0,1-1.36.44q-3.13,0-3.69-4.63H67c0,2.4,0,4.08-.11,5h.57a1.62,1.62,0,0,1,.32-.71.44.44,0,0,1,.48-.17c.25.09.67.26,1.25.53a5.77,5.77,0,0,0,2.57.53,7.24,7.24,0,0,0,2.6-.45,4.45,4.45,0,0,0,1.87-1.31,3,3,0,0,0,.7-2,3.3,3.3,0,0,0-.8-2.26A13.09,13.09,0,0,0,74,10.53"></path><path d="M95.17,17.25a1.41,1.41,0,0,1-.56.16A.94.94,0,0,1,93.8,17a4.21,4.21,0,0,1-.51-1.41L92.67,13a3.63,3.63,0,0,0-1.56-2.34,8,8,0,0,0-3.66-1A8.06,8.06,0,0,0,92.15,8a4.27,4.27,0,0,0,1.42-3.15,3.6,3.6,0,0,0-1.9-3.25A11.36,11.36,0,0,0,86,.44l-1.26,0-3,0c-1.84,0-3.23,0-4.16-.08V.92a5,5,0,0,1,1.33.2.89.89,0,0,1,.57.58,4.51,4.51,0,0,1,.15,1.38V15.57A4.51,4.51,0,0,1,79.45,17a.89.89,0,0,1-.57.58,5,5,0,0,1-1.33.2v.51c.93,0,2.37-.08,4.32-.08,1.77,0,3.14,0,4.13.08v-.51a4.91,4.91,0,0,1-1.34-.2A.88.88,0,0,1,84.1,17,4.51,4.51,0,0,1,84,15.57V9.78h1.77a1.8,1.8,0,0,1,1.69.87,9.39,9.39,0,0,1,.86,2.7l.49,2.52A3,3,0,0,0,90,18a4.42,4.42,0,0,0,2.5.62,5.47,5.47,0,0,0,2-.34,4.56,4.56,0,0,0,1.58-1.12l-.38-.3a2.39,2.39,0,0,1-.53.42m-10-8H84V3.08a5.16,5.16,0,0,1,.13-1.36,1,1,0,0,1,.48-.63A2.63,2.63,0,0,1,85.64.92a3.06,3.06,0,0,1,2.6,1A5.18,5.18,0,0,1,89,5.1a5,5,0,0,1-.83,3.08,3.67,3.67,0,0,1-3.08,1.09"></path><path d="M102.94,16.52a3.14,3.14,0,0,1-1.73-.5,3.55,3.55,0,0,1-1.32-1.61,6.79,6.79,0,0,1-.5-2.77c0-.54,0-.93,0-1.18h7.68c0-3.73-1.72-5.59-5.14-5.59a6.65,6.65,0,0,0-4.87,1.8,7,7,0,0,0-1.83,5.2,6.78,6.78,0,0,0,1.71,5,6.25,6.25,0,0,0,4.61,1.7,5.35,5.35,0,0,0,3.51-1.15,6,6,0,0,0,2-2.78l-.49-.15a4.17,4.17,0,0,1-3.61,2m-2.77-10a1.87,1.87,0,0,1,1.62-1.12q1,0,1.44,1.29a8.83,8.83,0,0,1,.42,3.29H99.36a8.34,8.34,0,0,1,.81-3.46"></path><path d="M120.43,5.22c-.49,0-1.19.08-2.1.08s-1.8,0-2.65-.08v.51c1.35.11,2,.78,2,2a6.06,6.06,0,0,1-.44,2l-1.88,4.84L112,7.16a1.8,1.8,0,0,1-.19-.7.56.56,0,0,1,.42-.6,5.88,5.88,0,0,1,1.3-.11V5.22c-1.46.1-2.72.15-3.8.15-1.29,0-2.54,0-3.74-.15v.53a1.49,1.49,0,0,1,.85.28,3,3,0,0,1,.84,1.13l5.8,12.13-.44,1.21a2.65,2.65,0,0,1-2.49,2l-.63,0a2.31,2.31,0,0,0,1-.67,1.56,1.56,0,0,0,.35-1,1.39,1.39,0,0,0-.56-1.17,2.42,2.42,0,0,0-1.49-.42,2.52,2.52,0,0,0-1.58.47,1.49,1.49,0,0,0-.6,1.24,1.62,1.62,0,0,0,.91,1.5,4.07,4.07,0,0,0,2.06.52,3.78,3.78,0,0,0,2.38-.63,4.14,4.14,0,0,0,1.2-1.79l4.9-12.66a4.84,4.84,0,0,1,.86-1.52,2.08,2.08,0,0,1,1-.64Z"></path><path d="M131.75,10.46c0-3.73-1.72-5.59-5.14-5.59a6.65,6.65,0,0,0-4.87,1.8,7,7,0,0,0-1.83,5.2,6.78,6.78,0,0,0,1.71,5,6.25,6.25,0,0,0,4.61,1.7,5.35,5.35,0,0,0,3.51-1.15,5.91,5.91,0,0,0,1.95-2.78l-.49-.15a4.17,4.17,0,0,1-3.61,2,3.14,3.14,0,0,1-1.73-.5,3.47,3.47,0,0,1-1.31-1.61,6.62,6.62,0,0,1-.51-2.77c0-.54,0-.93,0-1.18ZM124,10a8.34,8.34,0,0,1,.81-3.46,1.87,1.87,0,0,1,1.62-1.12q1,0,1.44,1.29A8.83,8.83,0,0,1,128.3,10Z"></path><path d="M142.27,12.67l-.06-.07a14,14,0,0,0-2.46-2.07L139,10a13.49,13.49,0,0,1-2-1.49A2,2,0,0,1,136.37,7a1.42,1.42,0,0,1,.53-1.18,2.1,2.1,0,0,1,1.35-.43,2.85,2.85,0,0,1,2.42,1.12,6.24,6.24,0,0,1,1.08,2.78h.57c0-2.09,0-3.57.11-4.43h-.57a1.59,1.59,0,0,1-.23.7.52.52,0,0,1-.43.24.93.93,0,0,1-.49-.18,5,5,0,0,0-1.34-.54,7.19,7.19,0,0,0-1.91-.24,5.81,5.81,0,0,0-3.34.93,2.92,2.92,0,0,0-1.36,2.54,3.24,3.24,0,0,0,.45,1.69,5.32,5.32,0,0,0,1.09,1.31c.43.37,1,.85,1.87,1.46s1.22.9,1.56,1.18a4,4,0,0,1,.86,1,2.33,2.33,0,0,1,.34,1.26,1.58,1.58,0,0,1-.56,1.35A2.12,2.12,0,0,1,137,18q-3.14,0-3.69-4.63h-.57c0,2.4,0,4.08-.11,5h.57a1.61,1.61,0,0,1,.32-.72.44.44,0,0,1,.47-.16c.26.09.68.26,1.26.53a5.77,5.77,0,0,0,2.57.53,7.24,7.24,0,0,0,2.6-.45,5.43,5.43,0,0,0,1-.5,5,5,0,0,1-.34-1.77,4.82,4.82,0,0,1,1.21-3.2"></path><path d="M153.84,18.48a3.25,3.25,0,0,1-1.55-.36,2.69,2.69,0,0,1-1.07-1,2.64,2.64,0,0,1-.39-1.43,2.68,2.68,0,0,1,.39-1.44,2.74,2.74,0,0,1,1.07-1,3.25,3.25,0,0,1,1.55-.35,2.92,2.92,0,0,1,1.48.35,2.16,2.16,0,0,1,.94,1L155,15a1.42,1.42,0,0,0-.52-.56,1.37,1.37,0,0,0-.69-.18,1.43,1.43,0,0,0-.72.18,1.39,1.39,0,0,0-.51.51,1.66,1.66,0,0,0-.18.8,1.63,1.63,0,0,0,.18.8,1.39,1.39,0,0,0,.51.51,1.43,1.43,0,0,0,.72.18,1.36,1.36,0,0,0,.69-.17,1.38,1.38,0,0,0,.52-.57l1.22.66a2.14,2.14,0,0,1-.94,1,2.92,2.92,0,0,1-1.48.36"></path><path d="M159.65,18.48a3.13,3.13,0,0,1-1.52-.36,2.65,2.65,0,0,1-1.44-2.42,2.62,2.62,0,0,1,1.44-2.42,3.13,3.13,0,0,1,1.52-.35,3.2,3.2,0,0,1,1.53.35,2.75,2.75,0,0,1,1,1,2.9,2.9,0,0,1,0,2.87,2.78,2.78,0,0,1-1,1,3.2,3.2,0,0,1-1.53.36m0-1.29a1.41,1.41,0,0,0,.71-.18,1.34,1.34,0,0,0,.49-.51,1.69,1.69,0,0,0,.18-.8,1.66,1.66,0,0,0-.18-.8,1.34,1.34,0,0,0-.49-.51,1.41,1.41,0,0,0-.71-.18,1.38,1.38,0,0,0-.7.18,1.27,1.27,0,0,0-.49.51,1.55,1.55,0,0,0-.19.8,1.58,1.58,0,0,0,.19.8A1.27,1.27,0,0,0,159,17a1.38,1.38,0,0,0,.7.18"></path><path d="M170.56,12.93a2.44,2.44,0,0,1,1.13.25,1.91,1.91,0,0,1,.79.78,2.82,2.82,0,0,1,.28,1.35V18.4H171.2V15.55a1.45,1.45,0,0,0-.27-1,1,1,0,0,0-.76-.31,1.26,1.26,0,0,0-.62.15,1.07,1.07,0,0,0-.42.47,1.82,1.82,0,0,0-.15.79V18.4h-1.56V15.55a1.45,1.45,0,0,0-.27-1,.92.92,0,0,0-.75-.31,1.23,1.23,0,0,0-.61.15,1.07,1.07,0,0,0-.42.47,1.82,1.82,0,0,0-.16.79V18.4h-1.56V13h1.49v1.47l-.28-.43a2,2,0,0,1,.8-.84,2.39,2.39,0,0,1,1.18-.28,2.28,2.28,0,0,1,1.3.37,1.8,1.8,0,0,1,.73,1.15l-.55-.15a2.11,2.11,0,0,1,.87-1,2.51,2.51,0,0,1,1.37-.37"></path><path d="M148.53,15.91a2.78,2.78,0,1,1-2.78-2.78,2.77,2.77,0,0,1,2.78,2.78" class="cls-1"></path></svg>